<?xml version="1.0" encoding="UTF-8"?>
<svg version="1.1" xmlns="http://www.w3.org/2000/svg" width="200" height="200">
<path d="M0 0 C1.40324524 -0.00717545 1.40324524 -0.00717545 2.83483887 -0.01449585 C4.80836676 -0.0178911 6.78195118 -0.00871489 8.75537109 0.01220703 C11.77178656 0.03897851 14.78448117 0.01244714 17.80078125 -0.01953125 C19.72136236 -0.01622708 21.64194116 -0.00982071 23.5625 0 C24.46158081 -0.01012115 25.36066162 -0.02024231 26.2869873 -0.03067017 C30.75670512 0.05275988 32.68908518 0.20626478 36.32617188 3.01806641 C38.28125 5.6640625 38.28125 5.6640625 39.28125 8.6640625 C41.11236328 8.72013672 41.11236328 8.72013672 42.98046875 8.77734375 C66.46971391 9.64607488 66.46971391 9.64607488 76.53125 15.7890625 C83.74448782 19.75537116 91.39763017 19.32758533 99.47363281 19.26220703 C105.59164906 19.26879364 109.55756946 19.32538414 114.28125 23.6640625 C115.630286 25.3180448 116.96595806 26.98312149 118.28125 28.6640625 C119.05315674 28.27549072 119.82506348 27.88691895 120.62036133 27.48657227 C123.48771842 26.04436699 126.35597541 24.60397185 129.22485352 23.16479492 C130.46577692 22.54182057 131.70634019 21.9181283 132.9465332 21.29370117 C134.73033064 20.39573025 136.51553847 19.50056277 138.30078125 18.60546875 C139.37432861 18.06607666 140.44787598 17.52668457 141.55395508 16.97094727 C146.86926657 14.42391814 151.46799577 14.15249613 157.28125 14.6640625 C160.41719153 15.93178354 161.84671548 17.18457614 164.09375 19.6640625 C165.89693645 24.2194809 166.29419634 28.8592315 165.28125 33.6640625 C161.61302777 38.90639791 157.85916219 41.36079518 152.1484375 44.08984375 C151.35712433 44.48173386 150.56581116 44.87362396 149.7505188 45.27738953 C147.22539956 46.5237865 144.69117724 47.75025816 142.15625 48.9765625 C140.50849128 49.78714564 138.86135016 50.5989855 137.21484375 51.41210938 C133.0881185 53.4444555 128.94930459 55.4505433 124.80456543 57.44586182 C122.22658866 58.69045178 119.65476222 59.94720051 117.08300781 61.20458984 C115.40194862 62.01843247 113.72064219 62.83176463 112.0390625 63.64453125 C111.27681366 64.01959305 110.51456482 64.39465485 109.72921753 64.78108215 C91.71615617 73.41984191 74.27227357 69.96496395 56.09375 63.6640625 C54.35046983 63.08334803 52.60632925 62.50520998 50.86132812 61.9296875 C46.65750823 60.5371583 42.46669506 59.11083551 38.28125 57.6640625 C38.15492187 58.45296875 38.02859375 59.241875 37.8984375 60.0546875 C37.28125 62.6640625 37.28125 62.6640625 35.40625 64.4140625 C31.07495822 66.9618812 26.97891915 66.84046371 22.10546875 66.8671875 C21.30268997 66.87288757 20.49991119 66.87858765 19.67280579 66.88446045 C17.97402257 66.89390289 16.2752211 66.90044143 14.57641602 66.90429688 C11.98876624 66.91398754 9.40191604 66.94501108 6.81445312 66.9765625 C5.16146303 66.98309451 3.50846728 66.98834421 1.85546875 66.9921875 C1.08651779 67.0045343 0.31756683 67.0168811 -0.47468567 67.02960205 C-5.27627117 67.00987934 -8.56895198 66.33589851 -12.71875 63.6640625 C-14.93616537 60.33793944 -14.98190537 59.23653612 -15.02514648 55.35400391 C-15.04113388 54.2692276 -15.05712128 53.18445129 -15.07359314 52.06680298 C-15.07895584 50.89491425 -15.08431854 49.72302551 -15.08984375 48.515625 C-15.09887222 47.31094574 -15.1079007 46.10626648 -15.11720276 44.86508179 C-15.13172134 42.31470227 -15.14059597 39.76428536 -15.14428711 37.21386719 C-15.15618249 33.31121069 -15.20535583 29.41013513 -15.25585938 25.5078125 C-15.26532334 23.03125773 -15.2725585 20.55469323 -15.27734375 18.078125 C-15.29687607 16.91028473 -15.31640839 15.74244446 -15.33653259 14.53921509 C-15.30977289 9.73528291 -15.28035267 6.60644529 -12.79125977 2.4296875 C-8.47089701 -0.05301917 -4.90860207 -0.05525724 0 0 Z M-6.71875 10.6640625 C-6.81688987 12.10146603 -6.8467328 13.54362577 -6.84814453 14.984375 C-6.85129669 15.90202637 -6.85444885 16.81967773 -6.85769653 17.76513672 C-6.8556723 18.76303223 -6.85364807 19.76092773 -6.8515625 20.7890625 C-6.85251923 21.80629395 -6.85347595 22.82352539 -6.85446167 23.87158203 C-6.85514361 26.02701886 -6.85328835 28.18245772 -6.84912109 30.33789062 C-6.84377305 33.64978621 -6.84906563 36.96154617 -6.85546875 40.2734375 C-6.85480797 42.36197947 -6.85352681 44.45052135 -6.8515625 46.5390625 C-6.85358673 47.53695801 -6.85561096 48.53485352 -6.85769653 49.56298828 C-6.85454437 50.48063965 -6.85139221 51.39829102 -6.84814453 52.34375 C-6.84734894 53.15569824 -6.84655334 53.96764648 -6.84573364 54.80419922 C-6.92239189 56.67952003 -6.92239189 56.67952003 -5.71875 57.6640625 C-3.13685554 57.76497725 -0.582285 57.80377749 2 57.796875 C3.15961243 57.79831009 3.15961243 57.79831009 4.34265137 57.79977417 C5.98022544 57.80045591 7.61780219 57.79860207 9.25537109 57.79443359 C11.77056921 57.78908521 14.28558873 57.79437876 16.80078125 57.80078125 C18.38802123 57.80012047 19.9752611 57.7988393 21.5625 57.796875 C22.31978394 57.79889923 23.07706787 57.80092346 23.8572998 57.80300903 C27.36140563 58.10859934 27.36140563 58.10859934 30.28125 56.6640625 C30.37429018 55.19051902 30.39871265 53.71255659 30.39477539 52.23608398 C30.39469986 51.29518417 30.39462433 50.35428436 30.39454651 49.38487244 C30.38938522 48.36196609 30.38422394 47.33905975 30.37890625 46.28515625 C30.37678383 44.7224575 30.37678383 44.7224575 30.37461853 43.12818909 C30.3690008 39.78595156 30.3564453 36.44377993 30.34375 33.1015625 C30.33873728 30.84179784 30.33417398 28.58203213 30.33007812 26.32226562 C30.31902561 20.76950859 30.30227024 15.21679025 30.28125 9.6640625 C25.17261104 9.6394124 20.06400641 9.62122643 14.95532227 9.60913086 C13.21605832 9.60409046 11.47679864 9.5972582 9.73754883 9.58862305 C7.24299063 9.57654458 4.74848827 9.57083142 2.25390625 9.56640625 C1.47161148 9.56124496 0.68931671 9.55608368 -0.11668396 9.55076599 C-3.71390066 9.21025836 -3.71390066 9.21025836 -6.71875 10.6640625 Z M39.28125 18.6640625 C39.28125 28.2340625 39.28125 37.8040625 39.28125 47.6640625 C44.19202094 49.35628762 49.10312018 51.04748792 54.01513672 52.73608398 C55.68559122 53.31067754 57.35584057 53.8858679 59.02587891 54.46166992 C61.42817184 55.28982504 63.83119753 56.11582199 66.234375 56.94140625 C66.97931213 57.19873032 67.72424927 57.45605438 68.49176025 57.72117615 C74.40609444 59.74918476 79.46480512 60.9068946 85.71875 61.0390625 C87.01683594 61.08804688 88.31492188 61.13703125 89.65234375 61.1875 C102.40940292 60.42148066 115.29858043 51.83515489 126.46875 46.1640625 C128.15531243 45.31323387 129.84215999 44.4629702 131.52929688 43.61328125 C134.72372498 42.00369086 137.91617907 40.39029695 141.10693359 38.7734375 C145.27695928 36.66206776 149.4620123 34.58187133 153.6574707 32.52148438 C155.27327415 31.77040824 155.27327415 31.77040824 156.28125 30.6640625 C156.5313273 28.20596252 156.5313273 28.20596252 156.28125 25.6640625 C155.29125 24.6740625 155.29125 24.6740625 154.28125 23.6640625 C148.98412742 23.95641891 144.66537435 25.56870757 139.95703125 27.8671875 C139.28834518 28.18685486 138.61965912 28.50652222 137.93070984 28.83587646 C136.52755977 29.51025438 135.12676554 30.18955412 133.72827148 30.87353516 C131.59655803 31.91269366 129.45447535 32.92773429 127.31054688 33.94140625 C125.94201808 34.6027402 124.57415536 35.26545462 123.20703125 35.9296875 C122.2538073 36.37843231 122.2538073 36.37843231 121.28132629 36.83624268 C117.20259875 38.86081488 115.00596141 41.07797181 112.28125 44.6640625 C108.59607625 47.44218086 104.25053688 46.93494795 99.83203125 46.89453125 C99.01880905 46.89407303 98.20558685 46.89361481 97.36772156 46.8931427 C95.65390559 46.89012794 93.94009218 46.88226488 92.22631836 46.86987305 C89.59283842 46.85155616 86.95970902 46.84936387 84.32617188 46.84960938 C82.66145527 46.84469623 80.99674106 46.8388688 79.33203125 46.83203125 C78.14460075 46.83036201 78.14460075 46.83036201 76.93318176 46.82865906 C71.39731827 46.78013077 71.39731827 46.78013077 70.28125 45.6640625 C70.15625 43.1640625 70.15625 43.1640625 70.28125 40.6640625 C72.24353114 38.70178136 76.02474422 39.45642456 78.7109375 39.41796875 C80.24349523 39.38502731 81.77604717 39.35181572 83.30859375 39.31835938 C85.73352016 39.27094187 88.15842357 39.2265273 90.58349609 39.18725586 C92.91789682 39.1475487 95.25180672 39.09599647 97.5859375 39.04296875 C98.31102509 39.0345546 99.03611267 39.02614044 99.78317261 39.01747131 C103.47660419 38.92671315 105.12797733 38.76624428 108.28125 36.6640625 C108.69791667 33.6640625 108.69791667 33.6640625 108.28125 30.6640625 C106.46797124 28.4219463 106.46797124 28.4219463 103.88964844 28.45629883 C102.8999707 28.46943115 101.91029297 28.48256348 100.890625 28.49609375 C87.20193561 28.46489388 77.99436337 27.76901253 66.28125 20.6640625 C58.04438595 17.26983078 47.94319286 18.53573742 39.28125 18.6640625 Z " fill="#000000" transform="translate(24.71875,111.3359375)"/>
<path d="M0 0 C4.0034027 0.38242904 5.09690995 1.44419325 7.91796875 4.24609375 C11.41859738 7.59976946 14.94775436 10.77493171 18.73046875 13.80859375 C23.19467332 17.42008509 27.46048989 21.19520069 31.703125 25.0625 C34.30009268 27.37046973 36.96450888 29.56415238 39.66796875 31.74609375 C44.48930009 35.64810344 49.08887554 39.74096086 53.640625 43.953125 C56.59003337 46.63561858 59.64745361 49.16207765 62.76953125 51.640625 C64.67561186 53.81681864 65.03684069 55.44566457 65.23046875 58.30859375 C63.23046875 60.30859375 63.23046875 60.30859375 60.29296875 60.62109375 C56.86934666 60.27174456 56.40228133 59.76565932 54.23046875 57.30859375 C54.22904373 57.8907515 54.22761871 58.47290924 54.22615051 59.07270813 C54.20648693 65.12374179 54.15228615 71.17376213 54.07788086 77.22436523 C54.05466208 79.4834059 54.0402961 81.74255541 54.03491211 84.00170898 C54.0256511 87.24662414 53.98472175 90.48981803 53.9375 93.734375 C53.94143265 94.74695877 53.9453653 95.75954254 53.94941711 96.80281067 C53.80463974 103.73650021 53.80463974 103.73650021 50.9362793 106.59448242 C47.71678421 107.4441642 47.01515627 106.89742683 44.23046875 105.30859375 C44.24458801 104.61892014 44.25870728 103.92924652 44.27325439 103.21867371 C44.3964218 96.67306622 44.46065154 90.12972343 44.46106339 83.58289623 C44.46329058 80.21774056 44.48714753 76.85582062 44.56298828 73.49145508 C45.66138044 58.11685268 45.66138044 58.11685268 40.67016602 44.19018555 C37.86964886 41.32501177 34.68616242 39.32794807 31.23046875 37.30859375 C29.35466138 35.81453392 27.4968942 34.29719006 25.66796875 32.74609375 C24.77464844 32.02679688 23.88132812 31.3075 22.9609375 30.56640625 C20.054982 28.16348454 17.26359545 25.66501583 14.48046875 23.12109375 C13.57554687 22.29609375 12.670625 21.47109375 11.73828125 20.62109375 C10.19704775 19.19989401 8.66797155 17.76520023 7.16015625 16.30859375 C4.02579968 13.18791026 4.02579968 13.18791026 -0.11328125 12.3515625 C-3.59946165 13.60761279 -5.80822741 15.75646072 -8.39453125 18.30859375 C-9.45601409 19.32014765 -10.51986306 20.32922384 -11.5859375 21.3359375 C-12.11848145 21.8397998 -12.65102539 22.34366211 -13.19970703 22.86279297 C-15.49184506 24.97384139 -17.90172272 26.92196539 -20.33203125 28.87109375 C-25.11514995 32.72108958 -29.65925041 36.77834886 -34.1640625 40.94921875 C-36.76953125 43.30859375 -36.76953125 43.30859375 -39.88208008 45.22827148 C-42.01188955 47.01262745 -42.6953859 47.99132574 -43.33448792 50.7260437 C-43.56136274 53.81494331 -43.60006449 56.85594365 -43.57421875 59.953125 C-43.58792511 61.07804855 -43.60163147 62.20297211 -43.61575317 63.36198425 C-43.65309125 66.94875949 -43.6493353 70.53415154 -43.64453125 74.12109375 C-43.66265515 76.55536022 -43.68345686 78.98960834 -43.70703125 81.42382812 C-43.75891808 87.38555236 -43.77708629 93.34666449 -43.76953125 99.30859375 C-46.24453125 100.29859375 -46.24453125 100.29859375 -48.76953125 101.30859375 C-51.07396505 99.63045206 -52.57298603 98.25584849 -53.16589355 95.39831543 C-53.32895761 92.98217207 -53.37542344 90.58966113 -53.37890625 88.16796875 C-53.3954425 87.28578674 -53.41197876 86.40360474 -53.42901611 85.49468994 C-53.47752319 82.68258725 -53.4988728 79.87102543 -53.51953125 77.05859375 C-53.54768871 75.14971233 -53.57761582 73.24085614 -53.609375 71.33203125 C-53.68328279 66.65759661 -53.7328408 61.98346269 -53.76953125 57.30859375 C-54.41341797 58.04529297 -54.41341797 58.04529297 -55.0703125 58.796875 C-56.76953125 60.30859375 -56.76953125 60.30859375 -59.95703125 60.49609375 C-61.34921875 60.40328125 -61.34921875 60.40328125 -62.76953125 60.30859375 C-63.42953125 58.65859375 -64.08953125 57.00859375 -64.76953125 55.30859375 C-60.5792512 49.98580558 -55.98615206 45.91223334 -50.6953125 41.6953125 C-47.788786 39.3243009 -45.02581817 36.85194863 -42.26953125 34.30859375 C-37.82226013 30.21508284 -33.22235662 26.38416876 -28.51953125 22.58984375 C-24.74535723 19.45899484 -21.16525334 16.13332922 -17.55859375 12.8125 C-13.77281255 9.41378046 -9.84817403 6.21616845 -5.88671875 3.0234375 C-2.49748199 0.27828079 -2.49748199 0.27828079 0 0 Z " fill="#000000" transform="translate(120.76953125,18.69140625)"/>
<path d="M0 0 C7.9962223 6.13663572 14.49606891 14.06704343 16.6875 24.0625 C17.65076407 37.82341531 16.69214758 48.45255768 7.5 59.4375 C0.42363326 66.76112747 -7.64234911 71.50725501 -17.92578125 72.36328125 C-31.10251378 72.4050238 -40.75589061 70.18960406 -50.51171875 60.98828125 C-59.48191656 51.48749873 -61.82298946 41.92889232 -61.58984375 29.18359375 C-61.07809541 18.08043709 -55.37770609 9.66108289 -47.4375 2.3125 C-33.67113669 -9.23858646 -14.99172172 -8.76874289 0 0 Z M-46.3125 14.0625 C-52.33221553 21.82476476 -53.20349665 29.48710565 -52.3125 39.0625 C-50.40799966 47.19369006 -45.92686867 53.92909425 -39 58.6328125 C-30.92945986 63.27868264 -22.84277931 64.55053172 -13.62109375 62.44921875 C-5.63127181 59.6108939 1.28262943 54.37713929 5.1875 46.75 C8.34073304 38.99830211 9.24818592 29.9777117 6.75 21.8125 C3.18411535 14.06419924 -3.65495129 7.25325068 -11.44140625 3.83984375 C-25.36857725 0.06908589 -36.6330758 3.98799726 -46.3125 14.0625 Z " fill="#000000" transform="translate(143.3125,56.9375)"/>
<path d="M0 0 C0.391875 1.093125 0.78375 2.18625 1.1875 3.3125 C2.73064741 6.96461554 4.44891697 8.17893178 8 10 C10.43769218 13.65653827 10.23944439 15.69000101 10 20 C9 21 9 21 5.9375 21.0625 C4.968125 21.041875 3.99875 21.02125 3 21 C2.34 19.35 1.68 17.7 1 16 C-0.98 16 -2.96 16 -5 16 C-5.33 17.32 -5.66 18.64 -6 20 C-5.40832031 20.10957031 -4.81664063 20.21914062 -4.20703125 20.33203125 C1.78920473 21.53519116 6.26437958 22.45442338 9.875 27.75 C11.27006851 31.78019793 11.17042662 33.90350682 10 38 C8.129595 40.90662241 6.14567101 43.42716449 3 45 C2.566875 45.99 2.13375 46.98 1.6875 48 C0 51 0 51 -2.5625 52 C-3.366875 52 -4.17125 52 -5 52 C-7 50 -7 50 -7.125 47.375 C-7.063125 46.199375 -7.063125 46.199375 -7 45 C-7.7425 44.773125 -8.485 44.54625 -9.25 44.3125 C-12.6085043 42.70957749 -14.02831528 41.14009048 -16 38 C-16.4375 35.3125 -16.4375 35.3125 -16 33 C-13 31 -13 31 -10.4375 31.1875 C-8 32 -8 32 -6 35 C-2.91634129 35.2502157 -2.91634129 35.2502157 0 35 C0 34.01 0 33.02 0 32 C-0.66386719 31.82984375 -1.32773438 31.6596875 -2.01171875 31.484375 C-7.14269378 30.07616579 -11.13937572 28.86062428 -15 25 C-16.88417981 21.23164037 -16.78622463 17.08088024 -16 13 C-14.04604584 10.39131774 -11.84464669 8.58321965 -9 7 C-8.34 7 -7.68 7 -7 7 C-7 5.02 -7 3.04 -7 1 C-4.53721199 -0.231394 -2.7204945 -0.07159196 0 0 Z " fill="#000000" transform="translate(124,64)"/>
</svg>
