<svg width="512" height="512" version="1.1" xmlns="http://www.w3.org/2000/svg" desc="Created with imagetracer.js version 1.2.6" ><path fill="rgb(0,0,0)" stroke="rgb(0,0,0)" stroke-width="1" opacity="0.7019607843137254" d="M 175.5 0 L 178 0.5 L 175.5 1 L 175.5 0 Z " /><path fill="rgb(0,0,0)" stroke="rgb(0,0,0)" stroke-width="1" opacity="0.7019607843137254" d="M 471.5 0 L 474 0.5 L 471.5 1 L 471.5 0 Z " /><path fill="rgb(0,0,0)" stroke="rgb(0,0,0)" stroke-width="1" opacity="0.7019607843137254" d="M 495.5 9 L 496.5 11 L 495.5 9 Z " /><path fill="rgb(0,0,0)" stroke="rgb(0,0,0)" stroke-width="1" opacity="0.7019607843137254" d="M 151.5 10 L 150.5 12 L 151.5 10 Z " /><path fill="rgb(0,0,0)" stroke="rgb(0,0,0)" stroke-width="1" opacity="0.7019607843137254" d="M 148.5 13 L 147.5 15 L 148.5 13 Z " /><path fill="rgb(0,0,0)" stroke="rgb(0,0,0)" stroke-width="1" opacity="0.7019607843137254" d="M 501.5 15 L 502.5 17 L 501.5 15 Z " /><path fill="rgb(0,0,0)" stroke="rgb(0,0,0)" stroke-width="1" opacity="0.7019607843137254" d="M 486.5 23 L 488.5 26 L 486.5 23 Z " /><path fill="rgb(0,0,0)" stroke="rgb(0,0,0)" stroke-width="1" opacity="0.7019607843137254" d="M 158.5 27 L 157.5 29 L 158.5 27 Z " /><path fill="rgb(0,0,0)" stroke="rgb(0,0,0)" stroke-width="1" opacity="0.7019607843137254" d="M 153.5 39 L 154 41.5 L 153 41.5 L 153.5 39 Z " /><path fill="rgb(0,0,0)" stroke="rgb(0,0,0)" stroke-width="1" opacity="0.7019607843137254" d="M 511.5 39 L 512 41.5 L 511 41.5 L 511.5 39 Z " /><path fill="rgb(0,0,0)" stroke="rgb(0,0,0)" stroke-width="1" opacity="0.7019607843137254" d="M 136.5 43 L 137 109.5 L 136 109.5 L 136.5 43 Z " /><path fill="rgb(0,0,0)" stroke="rgb(0,0,0)" stroke-width="1" opacity="0.7019607843137254" d="M 204.5 68 L 445 68.5 L 204.5 69 L 204.5 68 Z " /><path fill="rgb(0,0,0)" stroke="rgb(0,0,0)" stroke-width="1" opacity="0.7019607843137254" d="M 199.5 70 L 198.5 72 L 199.5 70 Z " /><path fill="rgb(0,0,0)" stroke="rgb(0,0,0)" stroke-width="1" opacity="0.7019607843137254" d="M 196.5 76 L 197 111.5 L 196 111.5 L 196.5 76 Z " /><path fill="rgb(0,0,0)" stroke="rgb(0,0,0)" stroke-width="1" opacity="0.7019607843137254" d="M 307.5 102 L 341 102.5 L 307.5 103 L 307.5 102 Z " /><path fill="rgb(0,0,0)" stroke="rgb(0,0,0)" stroke-width="1" opacity="0.7019607843137254" d="M 375.5 102 L 410 102.5 L 375.5 103 L 375.5 102 Z " /><path fill="rgb(0,0,0)" stroke="rgb(0,0,0)" stroke-width="1" opacity="0.7019607843137254" d="M 346.5 104 L 347.5 106 L 346.5 104 Z " /><path fill="rgb(0,0,0)" stroke="rgb(0,0,0)" stroke-width="1" opacity="0.7019607843137254" d="M 415.5 116 L 414.5 118 L 415.5 116 Z " /><path fill="rgb(0,0,0)" stroke="rgb(0,0,0)" stroke-width="1" opacity="0.7019607843137254" d="M 62.5 145 L 59.5 149 L 62.5 145 Z " /><path fill="rgb(0,0,0)" stroke="rgb(0,0,0)" stroke-width="1" opacity="0.7019607843137254" d="M 211.5 146 L 212.5 148 L 211.5 146 Z " /><path fill="rgb(0,0,0)" stroke="rgb(0,0,0)" stroke-width="1" opacity="0.7019607843137254" d="M 83.5 153 L 88 153.5 L 83.5 154 L 83.5 153 Z " /><path fill="rgb(0,0,0)" stroke="rgb(0,0,0)" stroke-width="1" opacity="0.7019607843137254" d="M 134.5 153 L 139 153.5 L 134.5 154 L 134.5 153 Z " /><path fill="rgb(0,0,0)" stroke="rgb(0,0,0)" stroke-width="1" opacity="0.7019607843137254" d="M 185.5 153 L 190 153.5 L 185.5 154 L 185.5 153 Z " /><path fill="rgb(0,0,0)" stroke="rgb(0,0,0)" stroke-width="1" opacity="0.7019607843137254" d="M 247.5 153 L 444 153.5 L 247.5 154 L 247.5 153 Z " /><path fill="rgb(0,0,0)" stroke="rgb(0,0,0)" stroke-width="1" opacity="0.7019607843137254" d="M 126.5 156 L 125.5 158 L 126.5 156 Z " /><path fill="rgb(0,0,0)" stroke="rgb(0,0,0)" stroke-width="1" opacity="0.7019607843137254" d="M 197.5 156 L 198.5 158 L 197.5 156 Z " /><path fill="rgb(0,0,0)" stroke="rgb(0,0,0)" stroke-width="1" opacity="0.7019607843137254" d="M 147.5 157 L 149.5 160 L 147.5 157 Z " /><path fill="rgb(0,0,0)" stroke="rgb(0,0,0)" stroke-width="1" opacity="0.7019607843137254" d="M 176.5 157 L 174.5 160 L 176.5 157 Z " /><path fill="rgb(0,0,0)" stroke="rgb(0,0,0)" stroke-width="1" opacity="0.7019607843137254" d="M 123.5 159 L 122.5 161 L 123.5 159 Z " /><path fill="rgb(0,0,0)" stroke="rgb(0,0,0)" stroke-width="1" opacity="0.7019607843137254" d="M 51.5 167 L 52 169.5 L 51 169.5 L 51.5 167 Z " /><path fill="rgb(0,0,0)" stroke="rgb(0,0,0)" stroke-width="1" opacity="0.7019607843137254" d="M 153.5 167 L 154 169.5 L 153 169.5 L 153.5 167 Z " /><path fill="rgb(0,0,0)" stroke="rgb(0,0,0)" stroke-width="1" opacity="0.7019607843137254" d="M 170.5 168 L 171 170.5 L 170 170.5 L 170.5 168 Z " /><path fill="rgb(0,0,0)" stroke="rgb(0,0,0)" stroke-width="1" opacity="0.7019607843137254" d="M 221.5 168 L 222 198.5 L 221 198.5 L 221.5 168 Z " /><path fill="rgb(0,0,0)" stroke="rgb(0,0,0)" stroke-width="1" opacity="0.7019607843137254" d="M 247.5 196 L 248 247.5 L 247 247.5 L 247.5 196 Z " /><path fill="rgb(0,0,0)" stroke="rgb(0,0,0)" stroke-width="1" opacity="0.7019607843137254" d="M 51.5 197 L 52 199.5 L 51 199.5 L 51.5 197 Z " /><path fill="rgb(0,0,0)" stroke="rgb(0,0,0)" stroke-width="1" opacity="0.7019607843137254" d="M 307.5 204 L 351 204.5 L 307.5 205 L 307.5 204 Z " /><path fill="rgb(0,0,0)" stroke="rgb(0,0,0)" stroke-width="1" opacity="0.7019607843137254" d="M 401.5 204 L 435 204.5 L 401.5 205 L 401.5 204 Z " /><path fill="rgb(0,0,0)" stroke="rgb(0,0,0)" stroke-width="1" opacity="0.7019607843137254" d="M 51.5 228 L 48.5 232 L 51.5 228 Z " /><path fill="rgb(0,0,0)" stroke="rgb(0,0,0)" stroke-width="1" opacity="0.7019607843137254" d="M 222.5 229 L 223.5 231 L 222.5 229 Z " /><path fill="rgb(0,0,0)" stroke="rgb(0,0,0)" stroke-width="1" opacity="0.7019607843137254" d="M 262.5 252 L 261.5 254 L 262.5 252 Z " /><path fill="rgb(0,0,0)" stroke="rgb(0,0,0)" stroke-width="1" opacity="0.7019607843137254" d="M 50.5 265 L 52.5 268 L 50.5 265 Z " /><path fill="rgb(0,0,0)" stroke="rgb(0,0,0)" stroke-width="1" opacity="0.7019607843137254" d="M 49.5 270 L 47.5 273 L 49.5 270 Z " /><path fill="rgb(0,0,0)" stroke="rgb(0,0,0)" stroke-width="1" opacity="0.7019607843137254" d="M 225.5 272 L 227.5 275 L 225.5 272 Z " /><path fill="rgb(0,0,0)" stroke="rgb(0,0,0)" stroke-width="1" opacity="0.7019607843137254" d="M 206.5 278 L 207.5 280 L 206.5 278 Z " /><path fill="rgb(0,0,0)" stroke="rgb(0,0,0)" stroke-width="1" opacity="0.7019607843137254" d="M 62.5 281 L 61.5 283 L 62.5 281 Z " /><path fill="rgb(0,0,0)" stroke="rgb(0,0,0)" stroke-width="1" opacity="0.7019607843137254" d="M 210.5 281 L 211.5 283 L 210.5 281 Z " /><path fill="rgb(0,0,0)" stroke="rgb(0,0,0)" stroke-width="1" opacity="0.7019607843137254" d="M 293.5 283 L 292.5 285 L 293.5 283 Z " /><path fill="rgb(0,0,0)" stroke="rgb(0,0,0)" stroke-width="1" opacity="0.7019607843137254" d="M 387.5 283 L 386.5 285 L 387.5 283 Z " /><path fill="rgb(0,0,0)" stroke="rgb(0,0,0)" stroke-width="1" opacity="0.7019607843137254" d="M 237.5 284 L 240.5 288 L 237.5 284 Z " /><path fill="rgb(0,0,0)" stroke="rgb(0,0,0)" stroke-width="1" opacity="0.7019607843137254" d="M 33.5 286 L 31.5 289 L 33.5 286 Z " /><path fill="rgb(0,0,0)" stroke="rgb(0,0,0)" stroke-width="1" opacity="0.7019607843137254" d="M 56.5 286 L 46.5 297 L 56.5 286 Z " /><path fill="rgb(0,0,0)" stroke="rgb(0,0,0)" stroke-width="1" opacity="0.7019607843137254" d="M 216.5 286 L 223.5 294 L 216.5 286 Z " /><path fill="rgb(0,0,0)" stroke="rgb(0,0,0)" stroke-width="1" opacity="0.7019607843137254" d="M 135.5 290 L 138 290.5 L 135.5 291 L 135.5 290 Z " /><path fill="rgb(0,0,0)" stroke="rgb(0,0,0)" stroke-width="1" opacity="0.7019607843137254" d="M 227.5 298 L 229.5 301 L 227.5 298 Z " /><path fill="rgb(0,0,0)" stroke="rgb(0,0,0)" stroke-width="1" opacity="0.7019607843137254" d="M 307.5 298 L 340.5 298 L 342 299.5 L 341.5 333 L 341 299 L 307.5 299 L 307.5 298 Z " /><path fill="rgb(0,0,0)" stroke="rgb(0,0,0)" stroke-width="1" opacity="0.7019607843137254" d="M 401.5 298 L 435 298.5 L 401.5 299 L 401.5 298 Z " /><path fill="rgb(0,0,0)" stroke="rgb(0,0,0)" stroke-width="1" opacity="0.7019607843137254" d="M 43.5 300 L 42.5 302 L 43.5 300 Z " /><path fill="rgb(0,0,0)" stroke="rgb(0,0,0)" stroke-width="1" opacity="0.7019607843137254" d="M 116.5 322 L 115.5 324 L 116.5 322 Z " /><path fill="rgb(0,0,0)" stroke="rgb(0,0,0)" stroke-width="1" opacity="0.7019607843137254" d="M 156.5 322 L 157.5 324 L 156.5 322 Z " /><path fill="rgb(0,0,0)" stroke="rgb(0,0,0)" stroke-width="1" opacity="0.7019607843137254" d="M 110.5 328 L 109.5 330 L 110.5 328 Z " /><path fill="rgb(0,0,0)" stroke="rgb(0,0,0)" stroke-width="1" opacity="0.7019607843137254" d="M 125.5 336 L 123.5 339 L 125.5 336 Z " /><path fill="rgb(0,0,0)" stroke="rgb(0,0,0)" stroke-width="1" opacity="0.7019607843137254" d="M 148.5 337 L 149.5 339 L 148.5 337 Z " /><path fill="rgb(0,0,0)" stroke="rgb(0,0,0)" stroke-width="1" opacity="0.7019607843137254" d="M 297.5 349 L 351 349.5 L 297.5 350 L 297.5 349 Z " /><path fill="rgb(0,0,0)" stroke="rgb(0,0,0)" stroke-width="1" opacity="0.7019607843137254" d="M 1.5 356 L 2 358.5 L 1 358.5 L 1.5 356 Z " /><path fill="rgb(0,0,0)" stroke="rgb(0,0,0)" stroke-width="1" opacity="0.7019607843137254" d="M 17.5 361 L 18 363.5 L 17 363.5 L 17.5 361 Z " /><path fill="rgb(0,0,0)" stroke="rgb(0,0,0)" stroke-width="1" opacity="0.7019607843137254" d="M 0.5 366 L 1 369.5 L 0 369.5 L 0.5 366 Z " /><path fill="rgb(0,0,0)" stroke="rgb(0,0,0)" stroke-width="1" opacity="0.7019607843137254" d="M 139.5 367 L 142 367.5 L 139.5 368 L 139.5 367 Z " /><path fill="rgb(0,0,0)" stroke="rgb(0,0,0)" stroke-width="1" opacity="0.7019607843137254" d="M 272.5 368 L 273 372.5 L 272 372.5 L 272.5 368 Z " /><path fill="rgb(0,0,0)" stroke="rgb(0,0,0)" stroke-width="1" opacity="0.7019607843137254" d="M 109.5 370 L 112.5 374 L 109.5 370 Z " /><path fill="rgb(0,0,0)" stroke="rgb(0,0,0)" stroke-width="1" opacity="0.7019607843137254" d="M 157.5 374 L 162.5 380 L 157.5 374 Z " /><path fill="rgb(0,0,0)" stroke="rgb(0,0,0)" stroke-width="1" opacity="0.7019607843137254" d="M 114.5 375 L 115.5 377 L 114.5 375 Z " /><path fill="rgb(0,0,0)" stroke="rgb(0,0,0)" stroke-width="1" opacity="0.7019607843137254" d="M 299.5 375 L 349 375.5 L 299.5 376 L 299.5 375 Z " /><path fill="rgb(0,0,0)" stroke="rgb(0,0,0)" stroke-width="1" opacity="0.7019607843137254" d="M 293.5 377 L 292.5 379 L 293.5 377 Z " /><path fill="rgb(0,0,0)" stroke="rgb(0,0,0)" stroke-width="1" opacity="0.7019607843137254" d="M 0.5 381 L 1 384.5 L 0 384.5 L 0.5 381 Z " /><path fill="rgb(0,0,0)" stroke="rgb(0,0,0)" stroke-width="1" opacity="0.7019607843137254" d="M 132.5 383 L 135 383.5 L 132.5 384 L 132.5 383 Z " /><path fill="rgb(0,0,0)" stroke="rgb(0,0,0)" stroke-width="1" opacity="0.7019607843137254" d="M 17.5 387 L 18 389.5 L 17 389.5 L 17.5 387 Z " /><path fill="rgb(0,0,0)" stroke="rgb(0,0,0)" stroke-width="1" opacity="0.7019607843137254" d="M 341.5 393 L 342 426.5 L 341 426.5 L 341.5 393 Z " /><path fill="rgb(0,0,0)" stroke="rgb(0,0,0)" stroke-width="1" opacity="0.7019607843137254" d="M 123.5 412 L 124.5 414 L 123.5 412 Z " /><path fill="rgb(0,0,0)" stroke="rgb(0,0,0)" stroke-width="1" opacity="0.7019607843137254" d="M 162.5 422 L 161.5 424 L 162.5 422 Z " /><path fill="rgb(0,0,0)" stroke="rgb(0,0,0)" stroke-width="1" opacity="0.7019607843137254" d="M 158.5 426 L 156.5 429 L 158.5 426 Z " /><path fill="rgb(0,0,0)" stroke="rgb(0,0,0)" stroke-width="1" opacity="0.7019607843137254" d="M 115.5 427 L 116.5 429 L 115.5 427 Z " /><path fill="rgb(0,0,0)" stroke="rgb(0,0,0)" stroke-width="1" opacity="0.7019607843137254" d="M 255.5 437 L 256 440.5 L 255 440.5 L 255.5 437 Z " /><path fill="rgb(0,0,0)" stroke="rgb(0,0,0)" stroke-width="1" opacity="0.7019607843137254" d="M 36.5 441 L 37.5 443 L 36.5 441 Z " /><path fill="rgb(0,0,0)" stroke="rgb(0,0,0)" stroke-width="1" opacity="0.7019607843137254" d="M 298.5 443 L 351 443.5 L 298.5 444 L 298.5 443 Z " /><path fill="rgb(0,0,0)" stroke="rgb(0,0,0)" stroke-width="1" opacity="0.7019607843137254" d="M 392.5 443 L 444 443.5 L 392.5 444 L 392.5 443 Z " /><path fill="rgb(0,0,0)" stroke="rgb(0,0,0)" stroke-width="1" opacity="0.7019607843137254" d="M 41.5 448 L 42.5 450 L 41.5 448 Z " /><path fill="rgb(0,0,0)" stroke="rgb(0,0,0)" stroke-width="1" opacity="0.7019607843137254" d="M 46.5 454 L 49.5 458 L 46.5 454 Z " /><path fill="rgb(0,0,0)" stroke="rgb(0,0,0)" stroke-width="1" opacity="0.7019607843137254" d="M 225.5 455 L 216.5 465 L 225.5 455 Z " /><path fill="rgb(0,0,0)" stroke="rgb(0,0,0)" stroke-width="1" opacity="0.7019607843137254" d="M 245.5 457 L 244.5 459 L 245.5 457 Z " /><path fill="rgb(0,0,0)" stroke="rgb(0,0,0)" stroke-width="1" opacity="0.7019607843137254" d="M 135.5 460 L 138 460.5 L 135.5 461 L 135.5 460 Z " /><path fill="rgb(0,0,0)" stroke="rgb(0,0,0)" stroke-width="1" opacity="0.7019607843137254" d="M 54.5 462 L 57.5 466 L 54.5 462 Z " /><path fill="rgb(0,0,0)" stroke="rgb(0,0,0)" stroke-width="1" opacity="0.7019607843137254" d="M 241.5 462 L 240.5 464 L 241.5 462 Z " /><path fill="rgb(0,0,0)" stroke="rgb(0,0,0)" stroke-width="1" opacity="0.7019607843137254" d="M 211.5 468 L 210.5 470 L 211.5 468 Z " /><path fill="rgb(0,0,0)" stroke="rgb(0,0,0)" stroke-width="1" opacity="0.7019607843137254" d="M 511.5 470 L 512 472.5 L 511 472.5 L 511.5 470 Z " /><path fill="rgb(0,0,0)" stroke="rgb(0,0,0)" stroke-width="1" opacity="0.7019607843137254" d="M 224.5 479 L 223.5 481 L 224.5 479 Z " /><path fill="rgb(0,0,0)" stroke="rgb(0,0,0)" stroke-width="1" opacity="0.7019607843137254" d="M 53.5 483 L 54.5 485 L 53.5 483 Z " /><path fill="rgb(0,0,0)" stroke="rgb(0,0,0)" stroke-width="1" opacity="0.7019607843137254" d="M 219.5 483 L 218.5 485 L 219.5 483 Z " /><path fill="rgb(0,0,0)" stroke="rgb(0,0,0)" stroke-width="1" opacity="0.7019607843137254" d="M 488.5 486 L 486.5 489 L 488.5 486 Z " /><path fill="rgb(0,0,0)" stroke="rgb(0,0,0)" stroke-width="1" opacity="0.7019607843137254" d="M 502.5 495 L 501.5 497 L 502.5 495 Z " /><path fill="rgb(0,0,0)" stroke="rgb(0,0,0)" stroke-width="1" opacity="0.7019607843137254" d="M 496.5 501 L 495.5 503 L 496.5 501 Z " /><path fill="rgb(0,0,0)" stroke="rgb(0,0,0)" stroke-width="1" opacity="0.7019607843137254" d="M 127.5 511 L 132 511.5 L 127.5 512 L 127.5 511 Z " /><path fill="rgb(0,0,0)" stroke="rgb(0,0,0)" stroke-width="1" opacity="0.7019607843137254" d="M 142.5 511 L 146 511.5 L 142.5 512 L 142.5 511 Z " /><path fill="rgb(0,0,0)" stroke="rgb(0,0,0)" stroke-width="1" opacity="0.7019607843137254" d="M 470.5 511 L 473 511.5 L 470.5 512 L 470.5 511 Z " /><path fill="rgb(0,0,0)" stroke="rgb(0,0,0)" stroke-width="1" opacity="0.4235294117647059" d="M 172.5 0 L 175 0.5 L 172.5 1 L 172.5 0 Z " /><path fill="rgb(0,0,0)" stroke="rgb(0,0,0)" stroke-width="1" opacity="0.4235294117647059" d="M 493.5 7 L 494.5 9 L 493.5 7 Z " /><path fill="rgb(0,0,0)" stroke="rgb(0,0,0)" stroke-width="1" opacity="0.4235294117647059" d="M 146.5 15 L 145.5 17 L 146.5 15 Z " /><path fill="rgb(0,0,0)" stroke="rgb(0,0,0)" stroke-width="1" opacity="0.4235294117647059" d="M 174.5 17 L 177 17.5 L 174.5 18 L 174.5 17 Z " /><path fill="rgb(0,0,0)" stroke="rgb(0,0,0)" stroke-width="1" opacity="0.4235294117647059" d="M 503.5 17 L 504.5 19 L 503.5 17 Z " /><path fill="rgb(0,0,0)" stroke="rgb(0,0,0)" stroke-width="1" opacity="0.4235294117647059" d="M 163.5 22 L 162.5 24 L 163.5 22 Z " /><path fill="rgb(0,0,0)" stroke="rgb(0,0,0)" stroke-width="1" opacity="0.4235294117647059" d="M 136.5 40 L 137 42.5 L 136 42.5 L 136.5 40 Z " /><path fill="rgb(0,0,0)" stroke="rgb(0,0,0)" stroke-width="1" opacity="0.4235294117647059" d="M 153.5 42 L 154 111.5 L 153 111.5 L 153.5 42 Z " /><path fill="rgb(0,0,0)" stroke="rgb(0,0,0)" stroke-width="1" opacity="0.4235294117647059" d="M 213.5 85 L 435 85.5 L 213.5 86 L 213.5 85 Z " /><path fill="rgb(0,0,0)" stroke="rgb(0,0,0)" stroke-width="1" opacity="0.4235294117647059" d="M 301.5 104 L 300.5 106 L 301.5 104 Z " /><path fill="rgb(0,0,0)" stroke="rgb(0,0,0)" stroke-width="1" opacity="0.4235294117647059" d="M 138.5 116 L 139.5 118 L 138.5 116 Z " /><path fill="rgb(0,0,0)" stroke="rgb(0,0,0)" stroke-width="1" opacity="0.4235294117647059" d="M 151.5 116 L 150.5 118 L 151.5 116 Z " /><path fill="rgb(0,0,0)" stroke="rgb(0,0,0)" stroke-width="1" opacity="0.4235294117647059" d="M 306.5 119 L 342 119.5 L 306.5 120 L 306.5 119 Z " /><path fill="rgb(0,0,0)" stroke="rgb(0,0,0)" stroke-width="1" opacity="0.4235294117647059" d="M 375.5 119 L 410 119.5 L 375.5 120 L 375.5 119 Z " /><path fill="rgb(0,0,0)" stroke="rgb(0,0,0)" stroke-width="1" opacity="0.4235294117647059" d="M 83.5 136 L 87 136.5 L 83.5 137 L 83.5 136 Z " /><path fill="rgb(0,0,0)" stroke="rgb(0,0,0)" stroke-width="1" opacity="0.4235294117647059" d="M 135.5 136 L 138 136.5 L 135.5 137 L 135.5 136 Z " /><path fill="rgb(0,0,0)" stroke="rgb(0,0,0)" stroke-width="1" opacity="0.4235294117647059" d="M 186.5 136 L 190 136.5 L 186.5 137 L 186.5 136 Z " /><path fill="rgb(0,0,0)" stroke="rgb(0,0,0)" stroke-width="1" opacity="0.4235294117647059" d="M 247.5 136 L 435 136.5 L 247.5 137 L 247.5 136 Z " /><path fill="rgb(0,0,0)" stroke="rgb(0,0,0)" stroke-width="1" opacity="0.4235294117647059" d="M 64.5 143 L 63.5 145 L 64.5 143 Z " /><path fill="rgb(0,0,0)" stroke="rgb(0,0,0)" stroke-width="1" opacity="0.4235294117647059" d="M 209.5 144 L 210.5 146 L 209.5 144 Z " /><path fill="rgb(0,0,0)" stroke="rgb(0,0,0)" stroke-width="1" opacity="0.4235294117647059" d="M 113.5 145 L 111.5 148 L 113.5 145 Z " /><path fill="rgb(0,0,0)" stroke="rgb(0,0,0)" stroke-width="1" opacity="0.4235294117647059" d="M 163.5 146 L 162.5 148 L 161 147.5 L 163.5 146 Z " /><path fill="rgb(0,0,0)" stroke="rgb(0,0,0)" stroke-width="1" opacity="0.4235294117647059" d="M 74.5 157 L 72.5 160 L 74.5 157 Z " /><path fill="rgb(0,0,0)" stroke="rgb(0,0,0)" stroke-width="1" opacity="0.4235294117647059" d="M 199.5 158 L 200.5 160 L 199.5 158 Z " /><path fill="rgb(0,0,0)" stroke="rgb(0,0,0)" stroke-width="1" opacity="0.4235294117647059" d="M 221.5 165 L 222 167.5 L 221 167.5 L 221.5 165 Z " /><path fill="rgb(0,0,0)" stroke="rgb(0,0,0)" stroke-width="1" opacity="0.4235294117647059" d="M 204.5 196 L 205 198.5 L 204 198.5 L 204.5 196 Z " /><path fill="rgb(0,0,0)" stroke="rgb(0,0,0)" stroke-width="1" opacity="0.4235294117647059" d="M 264.5 196 L 265 247.5 L 264 247.5 L 264.5 196 Z " /><path fill="rgb(0,0,0)" stroke="rgb(0,0,0)" stroke-width="1" opacity="0.4235294117647059" d="M 68.5 197 L 69 199.5 L 68 199.5 L 68.5 197 Z " /><path fill="rgb(0,0,0)" stroke="rgb(0,0,0)" stroke-width="1" opacity="0.4235294117647059" d="M 221.5 199 L 222 201.5 L 221 201.5 L 221.5 199 Z " /><path fill="rgb(0,0,0)" stroke="rgb(0,0,0)" stroke-width="1" opacity="0.4235294117647059" d="M 51.5 200 L 52 202.5 L 51 202.5 L 51.5 200 Z " /><path fill="rgb(0,0,0)" stroke="rgb(0,0,0)" stroke-width="1" opacity="0.4235294117647059" d="M 356.5 201 L 355.5 203 L 356.5 201 Z " /><path fill="rgb(0,0,0)" stroke="rgb(0,0,0)" stroke-width="1" opacity="0.4235294117647059" d="M 72.5 210 L 73.5 212 L 72.5 210 Z " /><path fill="rgb(0,0,0)" stroke="rgb(0,0,0)" stroke-width="1" opacity="0.4235294117647059" d="M 78.5 216 L 79.5 218 L 78.5 216 Z " /><path fill="rgb(0,0,0)" stroke="rgb(0,0,0)" stroke-width="1" opacity="0.4235294117647059" d="M 220.5 227 L 221.5 229 L 220.5 227 Z " /><path fill="rgb(0,0,0)" stroke="rgb(0,0,0)" stroke-width="1" opacity="0.4235294117647059" d="M 450.5 252 L 449.5 254 L 450.5 252 Z " /><path fill="rgb(0,0,0)" stroke="rgb(0,0,0)" stroke-width="1" opacity="0.4235294117647059" d="M 47.5 262 L 49.5 265 L 47.5 262 Z " /><path fill="rgb(0,0,0)" stroke="rgb(0,0,0)" stroke-width="1" opacity="0.4235294117647059" d="M 224.5 263 L 220.5 268 L 224.5 263 Z " /><path fill="rgb(0,0,0)" stroke="rgb(0,0,0)" stroke-width="1" opacity="0.4235294117647059" d="M 223.5 270 L 224.5 272 L 223.5 270 Z " /><path fill="rgb(0,0,0)" stroke="rgb(0,0,0)" stroke-width="1" opacity="0.4235294117647059" d="M 44.5 274 L 36.5 283 L 44.5 274 Z " /><path fill="rgb(0,0,0)" stroke="rgb(0,0,0)" stroke-width="1" opacity="0.4235294117647059" d="M 231.5 277 L 233.5 280 L 231.5 277 Z " /><path fill="rgb(0,0,0)" stroke="rgb(0,0,0)" stroke-width="1" opacity="0.4235294117647059" d="M 298.5 281 L 350 281.5 L 298.5 282 L 298.5 281 Z " /><path fill="rgb(0,0,0)" stroke="rgb(0,0,0)" stroke-width="1" opacity="0.4235294117647059" d="M 392.5 281 L 444 281.5 L 392.5 282 L 392.5 281 Z " /><path fill="rgb(0,0,0)" stroke="rgb(0,0,0)" stroke-width="1" opacity="0.4235294117647059" d="M 212.5 283 L 213.5 285 L 212.5 283 Z " /><path fill="rgb(0,0,0)" stroke="rgb(0,0,0)" stroke-width="1" opacity="0.4235294117647059" d="M 241.5 288 L 242.5 290 L 241.5 288 Z " /><path fill="rgb(0,0,0)" stroke="rgb(0,0,0)" stroke-width="1" opacity="0.4235294117647059" d="M 358.5 290 L 359 340.5 L 358 340.5 L 358.5 290 Z " /><path fill="rgb(0,0,0)" stroke="rgb(0,0,0)" stroke-width="1" opacity="0.4235294117647059" d="M 225.5 296 L 226.5 298 L 225.5 296 Z " /><path fill="rgb(0,0,0)" stroke="rgb(0,0,0)" stroke-width="1" opacity="0.4235294117647059" d="M 102.5 346 L 103 353.5 L 102 353.5 L 102.5 346 Z " /><path fill="rgb(0,0,0)" stroke="rgb(0,0,0)" stroke-width="1" opacity="0.4235294117647059" d="M 356.5 346 L 355.5 348 L 356.5 346 Z " /><path fill="rgb(0,0,0)" stroke="rgb(0,0,0)" stroke-width="1" opacity="0.4235294117647059" d="M 170.5 347 L 171 350.5 L 170 350.5 L 170.5 347 Z " /><path fill="rgb(0,0,0)" stroke="rgb(0,0,0)" stroke-width="1" opacity="0.4235294117647059" d="M 119.5 348 L 120 351.5 L 119 351.5 L 119.5 348 Z " /><path fill="rgb(0,0,0)" stroke="rgb(0,0,0)" stroke-width="1" opacity="0.4235294117647059" d="M 0.5 362 L 1 365.5 L 0 365.5 L 0.5 362 Z " /><path fill="rgb(0,0,0)" stroke="rgb(0,0,0)" stroke-width="1" opacity="0.4235294117647059" d="M 17.5 364 L 18 366.5 L 17 366.5 L 17.5 364 Z " /><path fill="rgb(0,0,0)" stroke="rgb(0,0,0)" stroke-width="1" opacity="0.4235294117647059" d="M 272.5 364 L 273 367.5 L 272 367.5 L 272.5 364 Z " /><path fill="rgb(0,0,0)" stroke="rgb(0,0,0)" stroke-width="1" opacity="0.4235294117647059" d="M 255.5 365 L 256 368.5 L 255 368.5 L 255.5 365 Z " /><path fill="rgb(0,0,0)" stroke="rgb(0,0,0)" stroke-width="1" opacity="0.4235294117647059" d="M 17.5 383 L 18 386.5 L 17 386.5 L 17.5 383 Z " /><path fill="rgb(0,0,0)" stroke="rgb(0,0,0)" stroke-width="1" opacity="0.4235294117647059" d="M 358.5 384 L 359 434.5 L 358 434.5 L 358.5 384 Z " /><path fill="rgb(0,0,0)" stroke="rgb(0,0,0)" stroke-width="1" opacity="0.4235294117647059" d="M 0.5 385 L 1 387.5 L 0 387.5 L 0.5 385 Z " /><path fill="rgb(0,0,0)" stroke="rgb(0,0,0)" stroke-width="1" opacity="0.4235294117647059" d="M 308.5 392 L 341 392.5 L 308.5 393 L 308.5 392 Z " /><path fill="rgb(0,0,0)" stroke="rgb(0,0,0)" stroke-width="1" opacity="0.4235294117647059" d="M 105.5 394 L 104.5 396 L 105.5 394 Z " /><path fill="rgb(0,0,0)" stroke="rgb(0,0,0)" stroke-width="1" opacity="0.4235294117647059" d="M 170.5 399 L 171 403.5 L 170 403.5 L 170.5 399 Z " /><path fill="rgb(0,0,0)" stroke="rgb(0,0,0)" stroke-width="1" opacity="0.4235294117647059" d="M 102.5 402 L 103 404.5 L 102 404.5 L 102.5 402 Z " /><path fill="rgb(0,0,0)" stroke="rgb(0,0,0)" stroke-width="1" opacity="0.4235294117647059" d="M 164.5 420 L 163.5 422 L 164.5 420 Z " /><path fill="rgb(0,0,0)" stroke="rgb(0,0,0)" stroke-width="1" opacity="0.4235294117647059" d="M 307.5 426 L 341 426.5 L 307.5 427 L 307.5 426 Z " /><path fill="rgb(0,0,0)" stroke="rgb(0,0,0)" stroke-width="1" opacity="0.4235294117647059" d="M 401.5 426 L 435 426.5 L 401.5 427 L 401.5 426 Z " /><path fill="rgb(0,0,0)" stroke="rgb(0,0,0)" stroke-width="1" opacity="0.4235294117647059" d="M 229.5 450 L 228.5 452 L 229.5 450 Z " /><path fill="rgb(0,0,0)" stroke="rgb(0,0,0)" stroke-width="1" opacity="0.4235294117647059" d="M 26.5 456 L 27.5 458 L 26.5 456 Z " /><path fill="rgb(0,0,0)" stroke="rgb(0,0,0)" stroke-width="1" opacity="0.4235294117647059" d="M 50.5 458 L 53.5 462 L 50.5 458 Z " /><path fill="rgb(0,0,0)" stroke="rgb(0,0,0)" stroke-width="1" opacity="0.4235294117647059" d="M 243.5 460 L 242.5 462 L 243.5 460 Z " /><path fill="rgb(0,0,0)" stroke="rgb(0,0,0)" stroke-width="1" opacity="0.4235294117647059" d="M 30.5 461 L 31.5 463 L 30.5 461 Z " /><path fill="rgb(0,0,0)" stroke="rgb(0,0,0)" stroke-width="1" opacity="0.4235294117647059" d="M 237.5 467 L 228.5 477 L 237.5 467 Z " /><path fill="rgb(0,0,0)" stroke="rgb(0,0,0)" stroke-width="1" opacity="0.4235294117647059" d="M 37.5 469 L 42.5 475 L 37.5 469 Z " /><path fill="rgb(0,0,0)" stroke="rgb(0,0,0)" stroke-width="1" opacity="0.4235294117647059" d="M 49.5 480 L 50.5 482 L 49.5 480 Z " /><path fill="rgb(0,0,0)" stroke="rgb(0,0,0)" stroke-width="1" opacity="0.4235294117647059" d="M 222.5 481 L 221.5 483 L 222.5 481 Z " /><path fill="rgb(0,0,0)" stroke="rgb(0,0,0)" stroke-width="1" opacity="0.4235294117647059" d="M 504.5 493 L 503.5 495 L 504.5 493 Z " /><path fill="rgb(0,0,0)" stroke="rgb(0,0,0)" stroke-width="1" opacity="0.4235294117647059" d="M 125.5 494 L 129 494.5 L 125.5 495 L 125.5 494 Z " /><path fill="rgb(0,0,0)" stroke="rgb(0,0,0)" stroke-width="1" opacity="0.4235294117647059" d="M 145.5 494 L 148 494.5 L 145.5 495 L 145.5 494 Z " /><path fill="rgb(0,0,0)" stroke="rgb(0,0,0)" stroke-width="1" opacity="0.4235294117647059" d="M 471.5 494 L 474 494.5 L 471.5 495 L 471.5 494 Z " /><path fill="rgb(0,0,0)" stroke="rgb(0,0,0)" stroke-width="1" opacity="0.4235294117647059" d="M 494.5 503 L 493.5 505 L 494.5 503 Z " /><path fill="rgb(0,0,0)" stroke="rgb(0,0,0)" stroke-width="1" opacity="0.4235294117647059" d="M 124.5 511 L 127 511.5 L 124.5 512 L 124.5 511 Z " /><path fill="rgb(0,0,0)" stroke="rgb(0,0,0)" stroke-width="1" opacity="0.4235294117647059" d="M 146.5 511 L 150 511.5 L 146.5 512 L 146.5 511 Z " /><path fill="rgb(0,0,0)" stroke="rgb(0,0,0)" stroke-width="1" opacity="0.4235294117647059" d="M 473.5 511 L 476 511.5 L 473.5 512 L 473.5 511 Z " /><path fill="rgb(0,0,0)" stroke="rgb(0,0,0)" stroke-width="1" opacity="0" d="M 0 0 L 170 0.5 Q 155.2 3.7 147 13.5 L 139 26.5 L 136 38.5 L 136 113.5 L 140.5 119 L 146.5 120 L 153 115.5 L 154 112.5 L 154 38.5 Q 156.4 27.4 164.5 22 L 173.5 18 L 475.5 18 Q 486 21.1 491 29.5 L 494 36.5 L 494 474.5 Q 491.4 485.9 482.5 491 L 475.5 494 L 239.5 494 L 233.5 496 L 231 498.5 L 230 506.5 L 233.5 511 L 235 511.5 L 152.5 512 L 152.5 511 L 159.5 511 L 179.5 506 L 200.5 497 Q 224.2 484.2 241 464.5 L 254 446.5 Q 257 443.5 256 436.5 L 251.5 431 Q 241 429 239 435.5 Q 230.1 452.1 216.5 464 Q 199.8 479.3 176.5 488 L 151.5 494 L 133.5 495 L 132.5 494 L 121.5 494 L 110.5 492 L 84.5 483 Q 62.6 471.9 47 454.5 Q 32.2 438.3 24 415.5 L 19 397.5 L 17 375.5 L 18 374.5 L 19 354.5 L 26 330.5 Q 36.8 305.3 55.5 288 L 74.5 274 L 198.5 274 Q 211.9 281.6 222 292.5 Q 237.5 308.5 247 330.5 L 254 354.5 L 255 375.5 L 256 379.5 L 259.5 383 L 267.5 384 L 272 380.5 L 273 378.5 L 273 360.5 L 268 336.5 L 259 313.5 Q 246.8 289.8 227.5 273 L 221 267.5 L 228 259.5 L 231 249.5 L 230 248.5 L 230 240.5 L 228 235.5 L 218.5 225 L 213 222.5 Q 219.9 215.4 222 203.5 L 222 164.5 Q 218.6 149.4 207.5 142 Q 199.1 135.4 183.5 136 Q 169.3 138.3 161.5 147 Q 153.2 135.8 133.5 136 L 124.5 138 L 110.5 147 Q 102 135.5 81.5 136 L 68.5 140 L 56 151.5 L 51 164.5 L 51 203.5 L 53 211.5 L 60 222.5 L 48 230.5 L 43 240.5 L 42 250.5 Q 43.8 262.1 52 267.5 L 32 286.5 Q 17.9 302.9 9 324.5 L 3 343.5 L 0.5 360 L 0 0 Z M 202 68 L 198 70 L 196 74 L 196 115 L 204 120 L 211 118 L 214 112 L 214 86 L 435 86 L 435 87 L 435 136 L 246 136 L 242 138 L 238 145 L 240 151 L 246 154 L 446 154 L 450 152 L 453 146 L 453 77 L 451 72 L 447 68 L 202 68 Z M 305 102 L 303 103 L 298 110 L 299 116 L 306 120 L 343 120 L 346 119 L 350 114 L 350 108 L 348 104 L 344 102 L 305 102 Z M 374 102 L 370 104 L 366 111 L 368 117 L 374 120 L 412 120 L 416 118 L 418 115 L 417 106 L 412 102 L 374 102 Z M 256 187 L 251 189 L 247 194 L 247 250 L 249 254 L 253 256 L 260 256 L 263 254 L 265 250 L 265 195 L 263 191 L 256 187 Z M 298 187 L 290 193 L 290 251 L 291 253 L 296 256 L 354 256 L 359 249 L 358 244 L 354 239 L 350 238 L 308 238 L 308 205 L 353 205 L 355 204 L 359 198 L 357 191 L 351 187 L 298 187 Z M 392 187 L 389 188 L 384 193 L 383 197 L 383 248 L 384 252 L 390 256 L 448 256 L 452 252 L 453 248 L 453 197 L 452 193 L 445 187 L 392 187 Z M 298 281 L 290 287 L 290 345 L 291 347 L 296 350 L 354 350 L 359 343 L 359 290 L 357 285 L 352 281 L 298 281 Z M 392 281 L 386 283 L 383 291 L 383 435 L 385 441 L 390 444 L 447 444 L 449 443 L 453 436 L 453 290 L 451 285 L 446 281 L 392 281 Z M 134 290 L 132 291 L 127 299 L 127 317 L 116 322 Q 105 330 102 346 L 103 360 L 110 373 Q 116 379 126 383 L 142 385 L 146 387 Q 151 390 153 398 Q 154 406 151 410 Q 147 416 138 418 L 129 416 L 122 410 L 118 396 L 113 392 L 107 393 L 102 399 Q 102 414 109 423 Q 115 432 127 434 L 127 453 L 129 458 L 134 461 L 142 460 L 145 456 L 145 434 L 151 433 L 159 428 Q 168 420 171 406 L 170 392 L 163 379 Q 157 372 148 368 L 132 366 L 128 364 Q 122 361 120 354 L 120 346 L 124 339 Q 128 334 135 333 L 145 335 L 152 344 L 154 355 L 161 359 L 167 358 L 171 353 Q 171 337 164 329 Q 158 320 147 317 L 145 316 L 145 296 L 144 294 Q 142 289 134 290 Z M 297 375 L 292 377 L 290 381 L 290 439 L 291 441 L 296 444 L 353 444 L 355 443 L 359 437 L 359 384 L 357 379 L 352 375 L 297 375 Z " /><path fill="rgb(0,0,0)" stroke="rgb(0,0,0)" stroke-width="1" opacity="0" d="M 478.5 0 L 512 0 L 512 33.5 L 511 33.5 Q 507.9 17.1 496.5 9 L 484.5 2 L 478.5 1 L 478.5 0 Z " /><path fill="rgb(0,0,0)" stroke="rgb(0,0,0)" stroke-width="1" opacity="0" d="M 82.5 154 Q 96 153.5 100 162.5 Q 102.9 166.1 102 173.5 L 105.5 178 L 111.5 180 L 118 176.5 Q 120.7 173.2 120 166.5 L 126.5 157 Q 130.6 153.1 139.5 154 L 149 159.5 L 153 167.5 L 153 172.5 L 156.5 178 L 162.5 180 L 169 176.5 L 171 172.5 L 172 164.5 L 176.5 158 Q 180.5 153 190.5 154 Q 197.5 155.5 201 160.5 L 204 166.5 L 204 201.5 Q 201.3 211.8 193.5 217 L 184.5 221 L 87.5 221 Q 77.8 218.3 73 210.5 L 69 201.5 L 69 166.5 Q 70.5 160 75.5 157 L 82.5 154 Z " /><path fill="rgb(0,0,0)" stroke="rgb(0,0,0)" stroke-width="1" opacity="0" d="M 401 205 L 435 205 L 435 238 L 401 238 L 401 205 Z " /><path fill="rgb(0,0,0)" stroke="rgb(0,0,0)" stroke-width="1" opacity="0" d="M 68.5 239 L 204.5 239 L 212 243.5 L 213 248.5 L 209.5 254 L 204.5 256 L 68.5 256 L 61 251.5 L 60 246.5 L 64.5 240 L 68.5 239 Z " /><path fill="rgb(0,0,0)" stroke="rgb(0,0,0)" stroke-width="1" opacity="0" d="M 308 299 L 341 299 L 341 332 L 308 332 L 308 299 Z " /><path fill="rgb(0,0,0)" stroke="rgb(0,0,0)" stroke-width="1" opacity="0" d="M 401 299 L 434.5 299 L 435 299.5 L 435 426 L 401.5 426 L 401 425.5 L 401 299 Z " /><path fill="rgb(0,0,0)" stroke="rgb(0,0,0)" stroke-width="1" opacity="0" d="M 0.5 392 L 4 411.5 L 15 439.5 Q 27.8 463.2 47.5 480 Q 61.2 491.8 78.5 500 L 100.5 508 L 121 511.5 L 0 512 L 0.5 392 Z " /><path fill="rgb(0,0,0)" stroke="rgb(0,0,0)" stroke-width="1" opacity="0" d="M 308 393 L 341 393 L 341 426 L 308 426 L 308 393 Z " /><path fill="rgb(0,0,0)" stroke="rgb(0,0,0)" stroke-width="1" opacity="0" d="M 511.5 478 L 512 512 L 478 511.5 Q 494.5 508 503 496.5 Q 509.2 489.2 511.5 478 Z " /><path fill="rgb(0,0,0)" stroke="rgb(0,0,0)" stroke-width="1" opacity="0.996078431372549" d="M 178.5 0 L 470.5 0 L 484.5 3 Q 494.6 6.9 501 14.5 L 509 27.5 L 512 42.5 L 512 469.5 L 509 484.5 Q 505.1 494.6 497.5 501 L 484.5 509 L 469.5 512 L 238.5 512 L 233 510 L 231 506.5 L 231 500.5 L 233.5 497 L 238.5 495 L 474.5 495 Q 483.9 492.9 489 486.5 L 495 474.5 L 495 37.5 Q 492.9 28.1 486.5 23 L 474.5 17 L 173.5 17 Q 162.6 20.1 157 28.5 L 153 39.5 L 153 113.5 L 149.5 118 L 142.5 119 L 138 115.5 L 137 113.5 L 137 36.5 L 140 25.5 L 149 12 L 163.5 3 L 178.5 0 Z " /><path fill="rgb(0,0,0)" stroke="rgb(0,0,0)" stroke-width="1" opacity="0.996078431372549" d="M 201.5 69 L 446.5 69 L 450 71.5 L 452 75.5 L 452 146.5 L 448.5 152 L 446.5 153 L 244.5 153 L 241 151 L 239 144.5 L 241 139 L 244.5 137 L 435 137 L 435 85.5 L 434.5 85 L 213 85 L 213 112.5 L 211 117 L 207.5 119 L 202.5 119 L 197 114.5 L 197 73.5 L 201.5 69 Z " /><path fill="rgb(0,0,0)" stroke="rgb(0,0,0)" stroke-width="1" opacity="0.996078431372549" d="M 304.5 103 L 344.5 103 L 349 107.5 Q 350.8 116.3 345.5 118 L 343.5 119 L 304.5 119 L 300 115.5 L 299 108.5 L 302.5 104 L 304.5 103 Z " /><path fill="rgb(0,0,0)" stroke="rgb(0,0,0)" stroke-width="1" opacity="0.996078431372549" d="M 372.5 103 L 412.5 103 L 416 105 L 418 111.5 L 413.5 118 L 411.5 119 L 372.5 119 L 369 117 L 367 109.5 L 369 105 L 372.5 103 Z " /><path fill="rgb(0,0,0)" stroke="rgb(0,0,0)" stroke-width="1" opacity="0.996078431372549" d="M 79.5 137 L 90.5 137 L 97.5 139 L 111.5 148 Q 120.1 136.1 141.5 137 Q 154.4 140.1 162.5 148 Q 171.3 136.3 192.5 137 Q 207.8 139.7 215 150.5 L 221 163.5 L 221 204.5 L 219 211.5 L 212 224 Q 220.9 225.2 225 232.5 L 230 243.5 L 230 250.5 Q 227.9 261.9 220 267.5 L 237 283.5 L 253 304.5 L 265 329.5 L 270 347.5 L 273 375.5 L 269.5 382 L 264.5 384 L 260.5 383 L 257 379.5 L 254 350.5 L 246 326.5 Q 234.8 302.8 216.5 286 L 198.5 273 L 74.5 273 Q 58.1 282.6 46 296.5 Q 29.3 315.3 21 342.5 L 17 361.5 L 17 389.5 Q 25.6 439.4 57.5 466 Q 75 481.5 99.5 490 L 123.5 495 L 149.5 495 L 169.5 491 L 197.5 479 Q 213.7 469.2 226 455.5 L 243.5 432 L 248.5 431 L 254 434.5 L 255 443.5 Q 243 464 225.5 479 Q 207.4 494.9 182.5 504 L 160.5 510 L 132.5 512 L 131.5 511 L 119.5 511 L 99.5 507 L 80.5 500 Q 52.2 486.8 33 464.5 Q 17.1 446.4 8 421.5 L 1 392.5 L 0 370.5 L 1 369.5 L 1 359.5 L 4 342.5 L 12 319.5 Q 24.9 291.9 46.5 273 L 53 267.5 Q 42 261.5 43 243.5 Q 45.6 231.6 54.5 226 L 61 222.5 Q 54.2 215.7 52 204.5 Q 53.8 198.3 51 196.5 L 51 170.5 L 53 159.5 L 57 151.5 L 65.5 143 L 79.5 137 Z M 84 153 L 76 156 Q 70 160 68 167 L 68 202 L 75 215 L 89 222 L 185 222 L 194 218 Q 202 212 205 201 L 205 168 L 202 161 Q 198 154 190 153 Q 181 153 177 157 L 171 165 L 169 176 L 164 179 L 156 177 L 154 174 L 153 165 L 150 160 Q 146 154 139 153 Q 131 153 127 156 L 120 165 L 119 173 L 117 177 L 113 179 L 106 177 L 103 174 L 101 163 L 98 158 L 92 154 L 84 153 Z M 65 239 L 59 247 L 60 252 L 66 256 L 208 256 L 210 255 L 214 248 L 213 244 L 208 239 L 65 239 Z " /><path fill="rgb(0,0,0)" stroke="rgb(0,0,0)" stroke-width="1" opacity="0.996078431372549" d="M 254.5 188 L 262 190 L 264 193.5 L 264 249.5 L 259.5 255 L 255.5 256 L 250 254 L 248 250.5 L 248 193.5 L 250.5 190 L 254.5 188 Z " /><path fill="rgb(0,0,0)" stroke="rgb(0,0,0)" stroke-width="1" opacity="0.996078431372549" d="M 296.5 188 L 351.5 188 L 356 190 Q 358.6 192.3 358 198.5 L 354.5 203 L 352.5 204 L 307 204 L 307 239 L 350.5 239 L 357 243.5 L 358 249.5 L 353.5 255 L 350.5 256 L 298.5 256 L 292 252.5 L 290 247.5 L 290 196.5 L 291 192.5 L 294.5 189 L 296.5 188 Z " /><path fill="rgb(0,0,0)" stroke="rgb(0,0,0)" stroke-width="1" opacity="0.996078431372549" d="M 390.5 188 L 445.5 188 L 451 192.5 L 452 195.5 L 452 248.5 L 447.5 255 L 443.5 256 L 392.5 256 L 388.5 255 L 385 251.5 L 384 248.5 L 384 195.5 L 388.5 189 L 390.5 188 Z M 401 204 L 401 239 L 435 239 L 435 204 L 401 204 Z " /><path fill="rgb(0,0,0)" stroke="rgb(0,0,0)" stroke-width="1" opacity="0.996078431372549" d="M 296.5 282 L 352.5 282 L 356 284 L 358 288.5 L 358 343.5 L 353.5 349 L 295.5 349 L 292 346.5 L 290 341.5 L 290 290.5 L 291 286.5 L 294.5 283 L 296.5 282 Z M 307 298 L 307 333 L 342 333 L 342 300 L 341 298 L 307 298 Z " /><path fill="rgb(0,0,0)" stroke="rgb(0,0,0)" stroke-width="1" opacity="0.996078431372549" d="M 390.5 282 L 445.5 282 L 450 284 L 452 289.5 L 452 436.5 L 448.5 442 L 446.5 443 L 389.5 443 L 386 440.5 L 384 435.5 L 384 289.5 L 388.5 283 L 390.5 282 Z M 401 298 L 401 427 L 402 427 L 435 427 L 435 299 L 435 298 L 401 298 Z " /><path fill="rgb(0,0,0)" stroke="rgb(0,0,0)" stroke-width="1" opacity="0.996078431372549" d="M 133.5 291 Q 140.8 289.8 143 293.5 L 145 298.5 L 145 316.5 L 146.5 318 Q 157.4 320.6 163 328.5 L 169 339.5 L 170 352.5 L 166.5 357 L 159.5 358 L 155 354.5 L 153 343.5 L 148.5 337 L 141.5 333 L 136.5 332 L 128.5 334 L 123 338.5 Q 117.8 342.8 119 353.5 Q 121.1 361.4 127.5 365 L 132.5 367 L 138.5 367 L 150.5 370 L 164 381.5 L 170 395.5 L 170 406.5 Q 167.5 419 159.5 426 L 145 434.5 L 145 452.5 L 141.5 459 L 133.5 460 L 130 457.5 L 128 452.5 L 128 434.5 L 126.5 433 Q 115.6 430.4 110 422.5 L 104 411.5 L 103 398.5 L 106.5 394 L 113.5 393 L 117 395.5 L 119 398.5 L 120 407.5 L 124.5 414 Q 129.2 419.8 141.5 418 L 149 414 L 153 407.5 L 154 398.5 Q 151.8 390.2 145.5 386 L 141.5 384 L 125.5 382 L 113 375 L 104 360.5 L 103 343.5 Q 106.1 331.1 114.5 324 L 128 316.5 L 128 297.5 L 131.5 292 L 133.5 291 Z " /><path fill="rgb(0,0,0)" stroke="rgb(0,0,0)" stroke-width="1" opacity="0.996078431372549" d="M 295.5 376 L 352.5 376 L 356 378.5 L 358 382.5 L 358 436.5 L 354.5 442 L 352.5 443 L 295.5 443 L 292 441 L 290 435.5 L 290 383.5 L 295.5 376 Z M 307 392 L 307 427 L 342 427 L 342 394 L 341 392 L 307 392 Z " /><path fill="rgb(0,0,0)" stroke="rgb(0,0,0)" stroke-width="1" opacity="0.18823529411764706" d="M 154.5 7 L 153.5 9 L 154.5 7 Z " /><path fill="rgb(0,0,0)" stroke="rgb(0,0,0)" stroke-width="1" opacity="0.18823529411764706" d="M 497.5 10 L 498.5 12 L 497.5 10 Z " /><path fill="rgb(0,0,0)" stroke="rgb(0,0,0)" stroke-width="1" opacity="0.18823529411764706" d="M 500.5 13 L 501.5 15 L 500.5 13 Z " /><path fill="rgb(0,0,0)" stroke="rgb(0,0,0)" stroke-width="1" opacity="0.18823529411764706" d="M 161.5 24 L 160.5 26 L 161.5 24 Z " /><path fill="rgb(0,0,0)" stroke="rgb(0,0,0)" stroke-width="1" opacity="0.18823529411764706" d="M 494.5 41 L 495 470.5 L 494 470.5 L 494.5 41 Z " /><path fill="rgb(0,0,0)" stroke="rgb(0,0,0)" stroke-width="1" opacity="0.18823529411764706" d="M 452.5 77 L 453 144.5 L 452 144.5 L 452.5 77 Z " /><path fill="rgb(0,0,0)" stroke="rgb(0,0,0)" stroke-width="1" opacity="0.18823529411764706" d="M 213.5 86 L 214 111.5 L 213 111.5 L 213.5 86 Z " /><path fill="rgb(0,0,0)" stroke="rgb(0,0,0)" stroke-width="1" opacity="0.18823529411764706" d="M 300.5 116 L 301.5 118 L 300.5 116 Z " /><path fill="rgb(0,0,0)" stroke="rgb(0,0,0)" stroke-width="1" opacity="0.18823529411764706" d="M 115.5 143 L 114.5 145 L 115.5 143 Z " /><path fill="rgb(0,0,0)" stroke="rgb(0,0,0)" stroke-width="1" opacity="0.18823529411764706" d="M 157.5 143 L 160.5 147 L 157.5 143 Z " /><path fill="rgb(0,0,0)" stroke="rgb(0,0,0)" stroke-width="1" opacity="0.18823529411764706" d="M 107.5 144 L 110.5 148 L 107.5 144 Z " /><path fill="rgb(0,0,0)" stroke="rgb(0,0,0)" stroke-width="1" opacity="0.18823529411764706" d="M 165.5 144 L 164.5 146 L 165.5 144 Z " /><path fill="rgb(0,0,0)" stroke="rgb(0,0,0)" stroke-width="1" opacity="0.18823529411764706" d="M 214.5 149 L 215.5 151 L 214.5 149 Z " /><path fill="rgb(0,0,0)" stroke="rgb(0,0,0)" stroke-width="1" opacity="0.18823529411764706" d="M 68.5 169 L 69 196.5 L 68 196.5 L 68.5 169 Z " /><path fill="rgb(0,0,0)" stroke="rgb(0,0,0)" stroke-width="1" opacity="0.18823529411764706" d="M 204.5 170 L 205 195.5 L 204 195.5 L 204.5 170 Z " /><path fill="rgb(0,0,0)" stroke="rgb(0,0,0)" stroke-width="1" opacity="0.18823529411764706" d="M 104.5 176 L 105.5 178 L 104.5 176 Z " /><path fill="rgb(0,0,0)" stroke="rgb(0,0,0)" stroke-width="1" opacity="0.18823529411764706" d="M 168.5 176 L 167.5 178 L 168.5 176 Z " /><path fill="rgb(0,0,0)" stroke="rgb(0,0,0)" stroke-width="1" opacity="0.18823529411764706" d="M 298.5 187 L 350 187.5 L 298.5 188 L 298.5 187 Z " /><path fill="rgb(0,0,0)" stroke="rgb(0,0,0)" stroke-width="1" opacity="0.18823529411764706" d="M 392.5 187 L 444 187.5 L 392.5 188 L 392.5 187 Z " /><path fill="rgb(0,0,0)" stroke="rgb(0,0,0)" stroke-width="1" opacity="0.18823529411764706" d="M 452.5 196 L 453 246.5 L 452 246.5 L 452.5 196 Z " /><path fill="rgb(0,0,0)" stroke="rgb(0,0,0)" stroke-width="1" opacity="0.18823529411764706" d="M 198.5 212 L 195.5 216 L 198.5 212 Z " /><path fill="rgb(0,0,0)" stroke="rgb(0,0,0)" stroke-width="1" opacity="0.18823529411764706" d="M 92.5 221 L 181 221.5 L 92.5 222 L 92.5 221 Z " /><path fill="rgb(0,0,0)" stroke="rgb(0,0,0)" stroke-width="1" opacity="0.18823529411764706" d="M 221.5 268 L 222.5 270 L 221.5 268 Z " /><path fill="rgb(0,0,0)" stroke="rgb(0,0,0)" stroke-width="1" opacity="0.18823529411764706" d="M 46.5 272 L 45.5 274 L 46.5 272 Z " /><path fill="rgb(0,0,0)" stroke="rgb(0,0,0)" stroke-width="1" opacity="0.18823529411764706" d="M 229.5 275 L 230.5 277 L 229.5 275 Z " /><path fill="rgb(0,0,0)" stroke="rgb(0,0,0)" stroke-width="1" opacity="0.18823529411764706" d="M 234.5 280 L 236.5 283 L 234.5 280 Z " /><path fill="rgb(0,0,0)" stroke="rgb(0,0,0)" stroke-width="1" opacity="0.18823529411764706" d="M 35.5 283 L 34.5 285 L 35.5 283 Z " /><path fill="rgb(0,0,0)" stroke="rgb(0,0,0)" stroke-width="1" opacity="0.18823529411764706" d="M 59.5 284 L 58.5 286 L 59.5 284 Z " /><path fill="rgb(0,0,0)" stroke="rgb(0,0,0)" stroke-width="1" opacity="0.18823529411764706" d="M 452.5 290 L 453 434.5 L 452 434.5 L 452.5 290 Z " /><path fill="rgb(0,0,0)" stroke="rgb(0,0,0)" stroke-width="1" opacity="0.18823529411764706" d="M 46.5 297 L 45.5 299 L 46.5 297 Z " /><path fill="rgb(0,0,0)" stroke="rgb(0,0,0)" stroke-width="1" opacity="0.18823529411764706" d="M 158.5 323 L 162.5 328 L 158.5 323 Z " /><path fill="rgb(0,0,0)" stroke="rgb(0,0,0)" stroke-width="1" opacity="0.18823529411764706" d="M 111.5 326 L 110.5 328 L 111.5 326 Z " /><path fill="rgb(0,0,0)" stroke="rgb(0,0,0)" stroke-width="1" opacity="0.18823529411764706" d="M 307.5 332 L 341 332.5 L 307.5 333 L 307.5 332 Z " /><path fill="rgb(0,0,0)" stroke="rgb(0,0,0)" stroke-width="1" opacity="0.18823529411764706" d="M 155.5 355 L 156.5 357 L 155.5 355 Z " /><path fill="rgb(0,0,0)" stroke="rgb(0,0,0)" stroke-width="1" opacity="0.18823529411764706" d="M 272.5 361 L 273 363.5 L 272 363.5 L 272.5 361 Z " /><path fill="rgb(0,0,0)" stroke="rgb(0,0,0)" stroke-width="1" opacity="0.18823529411764706" d="M 17.5 367 L 18 369.5 L 17 369.5 L 17.5 367 Z " /><path fill="rgb(0,0,0)" stroke="rgb(0,0,0)" stroke-width="1" opacity="0.18823529411764706" d="M 255.5 369 L 256 373.5 L 255 373.5 L 255.5 369 Z " /><path fill="rgb(0,0,0)" stroke="rgb(0,0,0)" stroke-width="1" opacity="0.18823529411764706" d="M 355.5 377 L 356.5 379 L 355.5 377 Z " /><path fill="rgb(0,0,0)" stroke="rgb(0,0,0)" stroke-width="1" opacity="0.18823529411764706" d="M 0.5 388 L 1 390.5 L 0 390.5 L 0.5 388 Z " /><path fill="rgb(0,0,0)" stroke="rgb(0,0,0)" stroke-width="1" opacity="0.18823529411764706" d="M 147.5 388 L 149.5 391 L 147.5 388 Z " /><path fill="rgb(0,0,0)" stroke="rgb(0,0,0)" stroke-width="1" opacity="0.18823529411764706" d="M 116.5 394 L 117.5 396 L 116.5 394 Z " /><path fill="rgb(0,0,0)" stroke="rgb(0,0,0)" stroke-width="1" opacity="0.18823529411764706" d="M 170.5 396 L 171 398.5 L 170 398.5 L 170.5 396 Z " /><path fill="rgb(0,0,0)" stroke="rgb(0,0,0)" stroke-width="1" opacity="0.18823529411764706" d="M 110.5 423 L 113.5 427 L 110.5 423 Z " /><path fill="rgb(0,0,0)" stroke="rgb(0,0,0)" stroke-width="1" opacity="0.18823529411764706" d="M 161.5 424 L 160.5 426 L 161.5 424 Z " /><path fill="rgb(0,0,0)" stroke="rgb(0,0,0)" stroke-width="1" opacity="0.18823529411764706" d="M 44.5 451 L 45.5 453 L 44.5 451 Z " /><path fill="rgb(0,0,0)" stroke="rgb(0,0,0)" stroke-width="1" opacity="0.18823529411764706" d="M 227.5 452 L 226.5 454 L 227.5 452 Z " /><path fill="rgb(0,0,0)" stroke="rgb(0,0,0)" stroke-width="1" opacity="0.18823529411764706" d="M 214.5 465 L 213.5 467 L 214.5 465 Z " /><path fill="rgb(0,0,0)" stroke="rgb(0,0,0)" stroke-width="1" opacity="0.18823529411764706" d="M 239.5 465 L 238.5 467 L 239.5 465 Z " /><path fill="rgb(0,0,0)" stroke="rgb(0,0,0)" stroke-width="1" opacity="0.18823529411764706" d="M 34.5 466 L 36.5 469 L 34.5 466 Z " /><path fill="rgb(0,0,0)" stroke="rgb(0,0,0)" stroke-width="1" opacity="0.18823529411764706" d="M 43.5 475 L 46.5 479 L 43.5 475 Z " /><path fill="rgb(0,0,0)" stroke="rgb(0,0,0)" stroke-width="1" opacity="0.18823529411764706" d="M 227.5 477 L 226.5 479 L 227.5 477 Z " /><path fill="rgb(0,0,0)" stroke="rgb(0,0,0)" stroke-width="1" opacity="0.18823529411764706" d="M 489.5 484 L 488.5 486 L 489.5 484 Z " /><path fill="rgb(0,0,0)" stroke="rgb(0,0,0)" stroke-width="1" opacity="0.18823529411764706" d="M 485.5 488 L 484.5 490 L 485.5 488 Z " /><path fill="rgb(0,0,0)" stroke="rgb(0,0,0)" stroke-width="1" opacity="0.18823529411764706" d="M 129.5 494 L 132 494.5 L 129.5 495 L 129.5 494 Z " /><path fill="rgb(0,0,0)" stroke="rgb(0,0,0)" stroke-width="1" opacity="0.18823529411764706" d="M 142.5 494 L 145 494.5 L 142.5 495 L 142.5 494 Z " /><path fill="rgb(0,0,0)" stroke="rgb(0,0,0)" stroke-width="1" opacity="0.0784313725490196" d="M 178.5 17 L 470 17.5 L 178.5 18 L 178.5 17 Z " /><path fill="rgb(0,0,0)" stroke="rgb(0,0,0)" stroke-width="1" opacity="0.0784313725490196" d="M 485.5 23 L 488.5 27 L 485.5 23 Z " /><path fill="rgb(0,0,0)" stroke="rgb(0,0,0)" stroke-width="1" opacity="0.0784313725490196" d="M 368.5 116 L 369.5 118 L 368.5 116 Z " /><path fill="rgb(0,0,0)" stroke="rgb(0,0,0)" stroke-width="1" opacity="0.0784313725490196" d="M 241.5 138 L 240.5 140 L 241.5 138 Z " /><path fill="rgb(0,0,0)" stroke="rgb(0,0,0)" stroke-width="1" opacity="0.0784313725490196" d="M 96.5 158 L 97.5 160 L 96.5 158 Z " /><path fill="rgb(0,0,0)" stroke="rgb(0,0,0)" stroke-width="1" opacity="0.0784313725490196" d="M 117.5 176 L 116.5 178 L 117.5 176 Z " /><path fill="rgb(0,0,0)" stroke="rgb(0,0,0)" stroke-width="1" opacity="0.0784313725490196" d="M 355.5 189 L 356.5 191 L 355.5 189 Z " /><path fill="rgb(0,0,0)" stroke="rgb(0,0,0)" stroke-width="1" opacity="0.0784313725490196" d="M 383.5 196 L 384 247.5 L 383 247.5 L 383.5 196 Z " /><path fill="rgb(0,0,0)" stroke="rgb(0,0,0)" stroke-width="1" opacity="0.0784313725490196" d="M 307.5 205 L 308 238 L 350 238.5 L 308.5 239 L 307 237.5 L 307.5 205 Z " /><path fill="rgb(0,0,0)" stroke="rgb(0,0,0)" stroke-width="1" opacity="0.0784313725490196" d="M 75.5 213 L 76.5 215 L 75.5 213 Z " /><path fill="rgb(0,0,0)" stroke="rgb(0,0,0)" stroke-width="1" opacity="0.0784313725490196" d="M 49.5 229 L 48.5 231 L 49.5 229 Z " /><path fill="rgb(0,0,0)" stroke="rgb(0,0,0)" stroke-width="1" opacity="0.0784313725490196" d="M 401.5 238 L 435 238.5 L 401.5 239 L 401.5 238 Z " /><path fill="rgb(0,0,0)" stroke="rgb(0,0,0)" stroke-width="1" opacity="0.0784313725490196" d="M 75.5 273 L 198 273.5 L 75.5 274 L 75.5 273 Z " /><path fill="rgb(0,0,0)" stroke="rgb(0,0,0)" stroke-width="1" opacity="0.0784313725490196" d="M 227.5 273 L 228.5 275 L 227.5 273 Z " /><path fill="rgb(0,0,0)" stroke="rgb(0,0,0)" stroke-width="1" opacity="0.0784313725490196" d="M 237.5 283 L 238.5 285 L 237.5 283 Z " /><path fill="rgb(0,0,0)" stroke="rgb(0,0,0)" stroke-width="1" opacity="0.0784313725490196" d="M 449.5 283 L 450.5 285 L 449.5 283 Z " /><path fill="rgb(0,0,0)" stroke="rgb(0,0,0)" stroke-width="1" opacity="0.0784313725490196" d="M 33.5 285 L 32.5 287 L 33.5 285 Z " /><path fill="rgb(0,0,0)" stroke="rgb(0,0,0)" stroke-width="1" opacity="0.0784313725490196" d="M 57.5 286 L 56.5 288 L 57.5 286 Z " /><path fill="rgb(0,0,0)" stroke="rgb(0,0,0)" stroke-width="1" opacity="0.0784313725490196" d="M 215.5 286 L 218.5 290 L 215.5 286 Z " /><path fill="rgb(0,0,0)" stroke="rgb(0,0,0)" stroke-width="1" opacity="0.0784313725490196" d="M 383.5 290 L 384 434.5 L 383 434.5 L 383.5 290 Z " /><path fill="rgb(0,0,0)" stroke="rgb(0,0,0)" stroke-width="1" opacity="0.0784313725490196" d="M 222.5 293 L 223.5 295 L 222.5 293 Z " /><path fill="rgb(0,0,0)" stroke="rgb(0,0,0)" stroke-width="1" opacity="0.0784313725490196" d="M 48.5 295 L 47.5 297 L 48.5 295 Z " /><path fill="rgb(0,0,0)" stroke="rgb(0,0,0)" stroke-width="1" opacity="0.0784313725490196" d="M 127.5 298 L 128 315.5 L 127 315.5 L 127.5 298 Z " /><path fill="rgb(0,0,0)" stroke="rgb(0,0,0)" stroke-width="1" opacity="0.0784313725490196" d="M 307.5 299 L 308 331.5 L 307 331.5 L 307.5 299 Z " /><path fill="rgb(0,0,0)" stroke="rgb(0,0,0)" stroke-width="1" opacity="0.0784313725490196" d="M 228.5 300 L 229.5 302 L 228.5 300 Z " /><path fill="rgb(0,0,0)" stroke="rgb(0,0,0)" stroke-width="1" opacity="0.0784313725490196" d="M 115.5 322 L 114.5 324 L 115.5 322 Z " /><path fill="rgb(0,0,0)" stroke="rgb(0,0,0)" stroke-width="1" opacity="0.0784313725490196" d="M 147.5 337 L 148.5 339 L 147.5 337 Z " /><path fill="rgb(0,0,0)" stroke="rgb(0,0,0)" stroke-width="1" opacity="0.0784313725490196" d="M 17.5 370 L 18 374.5 L 17 374.5 L 17.5 370 Z " /><path fill="rgb(0,0,0)" stroke="rgb(0,0,0)" stroke-width="1" opacity="0.0784313725490196" d="M 110.5 372 L 113.5 376 L 110.5 372 Z " /><path fill="rgb(0,0,0)" stroke="rgb(0,0,0)" stroke-width="1" opacity="0.0784313725490196" d="M 159.5 375 L 162.5 379 L 159.5 375 Z " /><path fill="rgb(0,0,0)" stroke="rgb(0,0,0)" stroke-width="1" opacity="0.0784313725490196" d="M 307.5 393 L 308 425.5 L 307 425.5 L 307.5 393 Z " /><path fill="rgb(0,0,0)" stroke="rgb(0,0,0)" stroke-width="1" opacity="0.0784313725490196" d="M 123.5 411 L 125.5 414 L 123.5 411 Z " /><path fill="rgb(0,0,0)" stroke="rgb(0,0,0)" stroke-width="1" opacity="0.0784313725490196" d="M 148.5 412 L 147.5 414 L 148.5 412 Z " /><path fill="rgb(0,0,0)" stroke="rgb(0,0,0)" stroke-width="1" opacity="0.0784313725490196" d="M 159.5 426 L 158.5 428 L 159.5 426 Z " /><path fill="rgb(0,0,0)" stroke="rgb(0,0,0)" stroke-width="1" opacity="0.0784313725490196" d="M 127.5 434 L 128 452.5 L 127 452.5 L 127.5 434 Z " /><path fill="rgb(0,0,0)" stroke="rgb(0,0,0)" stroke-width="1" opacity="0.0784313725490196" d="M 41.5 447 L 42.5 449 L 41.5 447 Z " /><path fill="rgb(0,0,0)" stroke="rgb(0,0,0)" stroke-width="1" opacity="0.0784313725490196" d="M 225.5 454 L 224.5 456 L 225.5 454 Z " /><path fill="rgb(0,0,0)" stroke="rgb(0,0,0)" stroke-width="1" opacity="0.0784313725490196" d="M 32.5 464 L 33.5 466 L 32.5 464 Z " /><path fill="rgb(0,0,0)" stroke="rgb(0,0,0)" stroke-width="1" opacity="0.0784313725490196" d="M 57.5 464 L 59.5 467 L 57.5 464 Z " /><path fill="rgb(0,0,0)" stroke="rgb(0,0,0)" stroke-width="1" opacity="0.0784313725490196" d="M 487.5 486 L 486.5 488 L 487.5 486 Z " /><path fill="rgb(0,0,0)" stroke="rgb(0,0,0)" stroke-width="1" opacity="0.0784313725490196" d="M 138.5 494 L 142 494.5 L 138.5 495 L 138.5 494 Z " /><path fill="rgb(0,0,0)" stroke="rgb(0,0,0)" stroke-width="1" opacity="0.0784313725490196" d="M 239.5 494 L 470 494.5 L 239.5 495 L 239.5 494 Z " /><path fill="rgb(0,0,0)" stroke="rgb(0,0,0)" stroke-width="1" opacity="0.0784313725490196" d="M 502.5 496 L 501.5 498 L 502.5 496 Z " /><path fill="rgb(0,0,0)" stroke="rgb(0,0,0)" stroke-width="1" opacity="0.0784313725490196" d="M 497.5 501 L 496.5 503 L 497.5 501 Z " /></svg>