<svg width="21" height="20" viewBox="0 0 21 20" fill="none" xmlns="http://www.w3.org/2000/svg">
<path d="M3.15 16.55V3.15C3.15 3.15 3.15 3.50417 3.15 4.2125C3.15 4.92083 3.15 5.81667 3.15 6.9V12.85C3.15 13.9333 3.15 14.8208 3.15 15.5125C3.15 16.2042 3.15 16.55 3.15 16.55ZM3.15 19.7C2.26667 19.7 1.52083 19.3958 0.9125 18.7875C0.304167 18.1792 0 17.4333 0 16.55V3.15C0 2.26667 0.304167 1.52083 0.9125 0.9125C1.52083 0.304167 2.26667 0 3.15 0H16.55C17.4333 0 18.1792 0.304167 18.7875 0.9125C19.3958 1.52083 19.7 2.26667 19.7 3.15V5.35H16.55V3.15H3.15V16.55H16.55V14.35H19.7V16.55C19.7 17.4333 19.3958 18.1792 18.7875 18.7875C18.1792 19.3958 17.4333 19.7 16.55 19.7H3.15ZM10.9 14.85C10.3362 14.85 9.85365 14.6583 9.45219 14.275C9.05073 13.8917 8.85 13.4167 8.85 12.85V6.9C8.85 6.33625 9.05073 5.85365 9.45219 5.45219C9.85365 5.05073 10.3362 4.85 10.9 4.85H18.675C19.2417 4.85 19.7208 5.05073 20.1125 5.45219C20.5042 5.85365 20.7 6.33625 20.7 6.9V12.8625C20.7 13.4091 20.5042 13.877 20.1125 14.2662C19.7208 14.6554 19.2417 14.85 18.675 14.85H10.9ZM18.725 12.85V6.85H10.85V12.85H18.725ZM13.85 11.35C14.2667 11.35 14.6208 11.2042 14.9125 10.9125C15.2042 10.6208 15.35 10.2667 15.35 9.85C15.35 9.43333 15.2042 9.07917 14.9125 8.7875C14.6208 8.49583 14.2667 8.35 13.85 8.35C13.4333 8.35 13.0792 8.49583 12.7875 8.7875C12.4958 9.07917 12.35 9.43333 12.35 9.85C12.35 10.2667 12.4958 10.6208 12.7875 10.9125C13.0792 11.2042 13.4333 11.35 13.85 11.35Z" fill="#102218"/>
</svg>
